<svg viewBox="0 0 24 24" fill="currentColor" xmlns="http://www.w3.org/2000/svg">
<path fill-rule="evenodd" clip-rule="evenodd" d="M5.77778 11C5.5299 11 5 11.328 5 12.1818V19.8182C5 20.672 5.5299 21 5.77778 21H18.2222C18.4701 21 19 20.672 19 19.8182V12.1818C19 11.328 18.4701 11 18.2222 11H5.77778ZM3 12.1818C3 10.6257 4.06198 9 5.77778 9H18.2222C19.938 9 21 10.6257 21 12.1818V19.8182C21 21.3743 19.938 23 18.2222 23H5.77778C4.06198 23 3 21.3743 3 19.8182V12.1818Z"/>
<path fill-rule="evenodd" clip-rule="evenodd" d="M12 3C10.9036 3 9.87239 3.38822 9.12883 4.04916C8.38911 4.70669 8 5.57148 8 6.44444V10C8 10.5523 7.55228 11 7 11C6.44772 11 6 10.5523 6 10V6.44444C6 4.95993 6.66446 3.5638 7.8001 2.55434C8.93191 1.54829 10.4442 1 12 1C13.5558 1 15.0681 1.54829 16.1999 2.55434C17.3355 3.5638 18 4.95993 18 6.44444V10C18 10.5523 17.5523 11 17 11C16.4477 11 16 10.5523 16 10V6.44444C16 5.57148 15.6109 4.70669 14.8712 4.04916C14.1276 3.38822 13.0964 3 12 3Z"/>
<path d="M14 16C14 17.1046 13.1046 18 12 18C10.8954 18 10 17.1046 10 16C10 14.8954 10.8954 14 12 14C13.1046 14 14 14.8954 14 16Z"/>
</svg>
