<svg width="24px" height="24" viewBox="0 0 24 24" fill="currentColor" xmlns="http://www.w3.org/2000/svg">
<path fill-rule="evenodd" clip-rule="evenodd" d="M3.66259 14.8931C4.74019 13.6958 6.22571 13 7.8 13H16.2C17.7743 13 19.2598 13.6958 20.3374 14.8931C21.4119 16.087 22 17.6856 22 19.3333V22C22 22.5523 21.5523 23 21 23C20.4477 23 20 22.5523 20 22V19.3333C20 18.152 19.5767 17.0376 18.8508 16.2311C18.1281 15.428 17.1718 15 16.2 15H7.8C6.82821 15 5.87193 15.428 5.14918 16.2311C4.4233 17.0376 4 18.152 4 19.3333V22C4 22.5523 3.55228 23 3 23C2.44772 23 2 22.5523 2 22V19.3333C2 17.6856 2.58812 16.087 3.66259 14.8931Z"/>
<path fill-rule="evenodd" clip-rule="evenodd" d="M12 4C10.3431 4 9 5.34315 9 7C9 8.65685 10.3431 10 12 10C13.6569 10 15 8.65685 15 7C15 5.34315 13.6569 4 12 4ZM7 7C7 4.23858 9.23858 2 12 2C14.7614 2 17 4.23858 17 7C17 9.76142 14.7614 12 12 12C9.23858 12 7 9.76142 7 7Z"/>
</svg>
