<svg width="514" height="111" viewBox="0 0 514 111" fill="none" xmlns="http://www.w3.org/2000/svg">
<g clip-path="url(#clip0_108_3299)">
<path fill-rule="evenodd" clip-rule="evenodd" d="M17.2572 36.6674C16.3042 36.6674 15.5315 37.4401 15.5315 38.3932V93.6163C15.5315 94.5694 16.3042 95.342 17.2572 95.342H72.4804C73.4335 95.342 74.2061 94.5694 74.2061 93.6163V64.279C74.2061 61.4197 76.524 59.1018 79.3833 59.1018C82.2425 59.1018 84.5604 61.4197 84.5604 64.279V93.6163C84.5604 100.288 79.152 105.696 72.4804 105.696H17.2572C10.5856 105.696 5.17719 100.288 5.17719 93.6163V38.3932C5.17719 31.7215 10.5856 26.3131 17.2572 26.3131H51.7717C54.631 26.3131 56.9489 28.631 56.9489 31.4903C56.9489 34.3496 54.631 36.6674 51.7717 36.6674H17.2572Z" fill="#FF8356"/>
<path fill-rule="evenodd" clip-rule="evenodd" d="M106.315 9.46562C107.588 13.1954 105.706 17.3075 102.112 18.6503C89.9044 23.2114 79.7162 35.8062 71.8947 50.3509C64.2134 64.6348 59.5688 79.3829 57.8484 86.0438C57.1266 88.8389 54.8648 90.9198 52.1099 91.3234C49.355 91.7269 46.6447 90.3744 45.2333 87.8919C41.2582 80.8996 36.6631 74.8095 32.3115 70.2478C27.7825 65.5001 24.1099 63.0309 22.0915 62.3411C18.4748 61.1053 16.5218 57.05 17.7293 53.2835C18.9368 49.5169 22.8475 47.4654 26.4642 48.7013C31.6002 50.4564 37.1306 54.861 42.1403 60.1125C44.419 62.5013 46.7155 65.1983 48.9578 68.1461C51.5839 60.7963 55.199 52.0458 59.851 43.3951C68.1069 28.0428 80.4104 11.5296 97.5022 5.14376C101.096 3.80093 105.042 5.73589 106.315 9.46562Z" fill="#FF8356"/>
</g>
<path d="M143.403 38.8718C135.743 39.2987 131.559 39.5122 130.85 39.5122C129.148 39.5122 127.445 38.4805 125.743 36.417C124.041 34.2823 123.19 32.0765 123.19 29.7996C123.19 26.313 133.297 24.5697 153.51 24.5697C163.864 24.5697 171.488 25.6371 176.382 27.7717C181.276 29.9063 183.723 32.5035 183.723 35.5631C183.723 36.4881 183.191 37.3776 182.127 38.2314C181.063 39.0141 179.715 39.4055 178.084 39.4055C176.453 39.4055 173.474 39.2987 169.148 39.0853C164.822 38.8718 160.885 38.7295 157.339 38.6584C157.623 39.5122 157.765 40.5084 157.765 41.6469C157.765 42.7853 157.339 45.0267 156.488 48.371C155.708 51.7152 154.573 56.3759 153.084 62.3529C151.595 68.2587 149.963 75.4453 148.19 83.9127C146.417 92.309 145.176 97.3254 144.467 98.9619C143.829 100.527 143.19 101.31 142.552 101.31C141.063 101.31 139.183 99.9581 136.914 97.2542C134.715 94.4792 133.616 92.2378 133.616 90.5301C133.616 88.8224 135.07 81.7781 137.977 69.3972C140.885 56.9451 142.694 46.77 143.403 38.8718Z" fill="#FF8356"/>
<path d="M192.866 91.0638C196.696 89.3561 200.029 85.9051 202.866 80.7108C205.703 75.5165 207.121 70.6424 207.121 66.0885C207.121 61.5346 206.483 58.4038 205.206 56.6961C202.157 58.4749 199.107 62.2106 196.057 67.9029C193.079 73.5953 191.589 78.6117 191.589 82.9521C191.589 87.2214 192.015 89.9253 192.866 91.0638ZM177.334 84.0195C177.334 75.1251 180.064 66.6933 185.525 58.724C191.057 50.7546 196.518 46.77 201.908 46.77C207.299 46.77 211.838 48.6912 215.526 52.5335C219.214 56.3047 221.058 60.8942 221.058 66.3019C221.058 71.6385 219.781 77.0819 217.228 82.6319C214.674 88.182 211.093 92.8071 206.483 96.5071C201.873 100.136 196.944 101.95 191.696 101.95C187.795 101.95 184.426 100.207 181.589 96.7206C178.752 93.234 177.334 89.0003 177.334 84.0195Z" fill="#FF8356"/>
<path d="M271.809 16.9918C273.511 16.9918 275.745 18.5572 278.511 21.688C281.277 24.7476 282.66 27.6294 282.66 30.3333C282.66 31.6852 281.419 37.3064 278.936 47.1969C276.454 57.0874 274.965 63.0644 274.468 65.1279C268.794 89.6763 264.645 101.95 262.021 101.95C260.532 101.95 258.865 101.061 257.021 99.2821C255.177 97.5033 254.255 95.76 254.255 94.0523C254.255 93.6965 254.291 93.4119 254.362 93.1984C247.269 99.0331 242.163 101.95 239.042 101.95C235.993 101.95 233.014 100.314 230.106 97.0408C227.269 93.6965 225.851 90.6724 225.851 87.9685C225.851 85.2647 226.205 82.2762 226.914 79.0031C227.695 75.6588 228.865 72.1366 230.425 68.4366C231.985 64.7365 233.758 61.2855 235.744 58.0836C237.801 54.8105 240.248 52.1422 243.085 50.0787C245.993 47.944 248.971 46.8767 252.021 46.8767C256.56 46.8767 260.284 49.1892 263.191 53.8143C267.021 36.9506 268.865 25.7438 268.723 20.1937C268.723 18.0591 269.752 16.9918 271.809 16.9918ZM240.425 88.3955C242.198 88.3955 245.177 86.8656 249.361 83.806C253.617 80.7463 256.773 76.8684 258.83 72.1722C258.759 71.603 258.723 70.3578 258.723 68.4366C258.723 66.5154 258.085 64.701 256.808 62.9933C255.532 61.2855 254.362 60.4317 253.298 60.4317C251.17 60.4317 249.113 61.5702 247.127 63.8471C245.213 66.1241 243.688 68.8279 242.553 71.9587C240.142 78.5761 238.936 83.5925 238.936 87.0079C238.936 87.5772 239.007 87.9685 239.149 88.182C239.361 88.3243 239.787 88.3955 240.425 88.3955Z" fill="#FF8356"/>
<path d="M298.73 91.0638C302.56 89.3561 305.893 85.9051 308.73 80.7108C311.567 75.5165 312.986 70.6424 312.986 66.0885C312.986 61.5346 312.347 58.4038 311.071 56.6961C308.021 58.4749 304.971 62.2106 301.922 67.9029C298.943 73.5953 297.454 78.6117 297.454 82.9521C297.454 87.2214 297.879 89.9253 298.73 91.0638ZM283.198 84.0195C283.198 75.1251 285.929 66.6933 291.39 58.724C296.922 50.7546 302.383 46.77 307.773 46.77C313.163 46.77 317.702 48.6912 321.39 52.5335C325.078 56.3047 326.922 60.8942 326.922 66.3019C326.922 71.6385 325.645 77.0819 323.092 82.6319C320.539 88.182 316.957 92.8071 312.347 96.5071C307.737 100.136 302.808 101.95 297.56 101.95C293.659 101.95 290.29 100.207 287.454 96.7206C284.617 93.234 283.198 89.0003 283.198 84.0195Z" fill="#FF8356"/>
<path d="M352.779 22.1149C354.552 22.1149 356.715 23.2889 359.269 25.637C361.822 27.9852 363.098 30.4044 363.098 32.8948C363.098 39.7257 359.588 52.9604 352.566 72.5991C350.155 79.5011 348.949 84.3041 348.949 87.0079C348.949 87.3637 349.02 87.5772 349.162 87.6483C349.304 87.7195 350.616 87.7551 353.098 87.7551C355.581 87.7551 358.985 87.3993 363.311 86.6878C367.708 85.9051 371.255 85.1579 373.95 84.4464C376.716 83.7348 378.347 83.3791 378.843 83.3791C380.616 83.3791 381.503 84.5175 381.503 86.7945C381.503 91.2772 378.099 94.9061 371.29 97.6812C364.552 100.385 356.715 101.737 347.779 101.737C344.304 101.737 341.112 100.456 338.205 97.8946C335.368 95.2619 333.949 92.3801 333.949 89.2493C333.949 86.1185 336.573 76.0146 341.822 58.9374C347.07 41.7892 349.694 30.689 349.694 25.637C349.694 23.2889 350.722 22.1149 352.779 22.1149Z" fill="#FF8356"/>
<path d="M400.748 33.5352C400.748 31.6852 401.563 29.7996 403.194 27.8784C404.897 25.8861 406.528 24.8899 408.088 24.8899C409.719 24.8899 411.634 26.8111 413.833 30.6535C416.031 34.4958 417.131 37.3064 417.131 39.0853C417.131 40.793 416.563 42.1094 415.429 43.0344C414.294 43.9594 413.124 44.4219 411.918 44.4219C409.861 44.4219 407.485 43.0699 404.79 40.3661C402.095 37.6622 400.748 35.3852 400.748 33.5352ZM402.343 46.8767C404.826 46.8767 407.024 48.2998 408.939 51.146C410.925 53.9922 411.918 56.7316 411.918 59.3644C411.918 60.7163 410.677 65.5904 408.194 73.9866C405.783 82.3117 403.372 90.2099 400.96 97.6812C400.109 100.456 398.372 101.844 395.748 101.844C394.187 101.844 392.804 101.274 391.599 100.136C390.464 98.9264 389.896 97.3965 389.896 95.5465C389.896 93.6253 390.783 88.9291 392.556 81.4579C394.4 73.9155 395.783 67.5116 396.705 62.2461C397.698 56.9095 398.584 53.0316 399.365 50.6123C400.216 48.1219 401.209 46.8767 402.343 46.8767Z" fill="#FF8356"/>
<path d="M451.893 46.9835C454.588 46.9835 457.248 48.5844 459.872 51.7864C462.496 54.9884 463.808 57.8701 463.808 60.4317C463.808 62.1394 463.064 62.9933 461.574 62.9933C460.723 62.9933 459.482 62.6731 457.851 62.0327C456.22 61.3211 454.553 60.9653 452.851 60.9653C451.22 60.9653 448.773 61.5346 445.51 62.6731C442.319 63.8115 440.723 65.3058 440.723 67.1558C440.723 67.8673 441.68 68.8991 443.595 70.251C445.51 71.603 447.603 72.9905 449.872 74.4136C452.142 75.8367 454.234 77.829 456.149 80.3906C458.064 82.881 459.021 85.6204 459.021 88.6089C459.021 91.5263 456.858 94.4792 452.532 97.4677C448.276 100.456 443.241 101.95 437.425 101.95C431.68 101.95 426.751 100.634 422.638 98.0014C418.524 95.3686 416.467 92.6647 416.467 89.8897C416.467 87.1147 417.602 85.7272 419.872 85.7272C420.794 85.7272 421.893 86.0829 423.17 86.7945C426.716 88.858 431.113 89.8897 436.361 89.8897C441.68 89.8897 444.34 89.1782 444.34 87.7551C444.34 86.332 443.312 84.7666 441.255 83.0589C439.269 81.28 437.07 79.6434 434.659 78.1492C432.319 76.6549 430.12 74.8405 428.063 72.7059C426.077 70.5001 425.085 68.3654 425.085 66.3019C425.085 62.4596 428.56 58.297 435.51 53.8143C442.461 49.2604 447.922 46.9835 451.893 46.9835Z" fill="#FF8356"/>
<path d="M495.17 59.5778C494.603 61.499 493.752 64.2029 492.617 67.6895C491.553 71.1049 490.205 75.4097 488.574 80.604C487.014 85.7983 486.234 88.5734 486.234 88.9291C486.234 89.2137 486.801 89.3561 487.936 89.3561C489.142 89.3561 491.943 88.5733 496.34 87.0079C500.737 85.3714 503.326 84.5531 504.106 84.5531C505.879 84.5531 506.766 85.7627 506.766 88.182C506.766 90.6013 504.39 93.5186 499.638 96.934C494.886 100.278 489.922 101.95 484.744 101.95C482.475 101.95 479.78 100.705 476.659 98.2148C473.539 95.7244 471.978 93.1984 471.978 90.6368C471.978 88.5022 473.042 84.0195 475.17 77.1886C477.368 70.2866 478.858 65.5548 479.638 62.9933C476.872 63.776 474.78 64.1673 473.361 64.1673C471.943 64.1673 470.453 63.2067 468.893 61.2855C467.333 59.2932 466.553 57.4076 466.553 55.6287C466.553 53.3518 472.049 51.4306 483.042 49.8652C484.39 43.2478 485.064 37.5199 485.064 32.6814C485.064 30.5467 486.127 29.4794 488.255 29.4794C490.099 29.4794 492.439 30.6179 495.276 32.8948C498.184 35.1006 499.638 37.3064 499.638 39.5122C499.638 41.6469 499.177 44.6709 498.255 48.5844C501.659 48.4421 504.248 48.371 506.021 48.371C511.34 48.371 514 49.5806 514 51.9999C514 53.5653 512.44 54.9172 509.319 56.0557C506.269 57.123 501.553 58.297 495.17 59.5778Z" fill="#FF8356"/>
<defs>
<clipPath id="clip0_108_3299">
<rect width="110.446" height="110.446" fill="white"/>
</clipPath>
</defs>
</svg>
