<svg width="512" height="512" viewBox="0 0 512 512" fill="none" xmlns="http://www.w3.org/2000/svg">
<g clip-path="url(#clip0_62_500)">
<path fill-rule="evenodd" clip-rule="evenodd" d="M80 169.981C75.5817 169.981 72 173.563 72 177.981V433.981C72 438.399 75.5817 441.981 80 441.981H336C340.418 441.981 344 438.399 344 433.981V297.981C344 284.726 354.745 273.981 368 273.981C381.255 273.981 392 284.726 392 297.981V433.981C392 464.909 366.928 489.981 336 489.981H80C49.0721 489.981 24 464.909 24 433.981V177.981C24 147.053 49.072 121.981 80 121.981H240C253.255 121.981 264 132.726 264 145.981C264 159.236 253.255 169.981 240 169.981H80Z" fill="#FF8356"/>
<path fill-rule="evenodd" clip-rule="evenodd" d="M492.848 43.8799C498.749 61.1699 490.026 80.2327 473.365 86.4577C416.773 107.602 369.544 165.988 333.285 233.413C297.676 299.63 276.145 367.998 268.17 398.876C264.824 411.834 254.339 421.48 241.568 423.351C228.797 425.222 216.232 418.952 209.69 407.443C191.262 375.029 169.96 346.797 149.788 325.65C128.792 303.641 111.767 292.194 102.41 288.997C85.6443 283.268 76.5907 264.469 82.1883 247.008C87.7859 229.547 105.915 220.037 122.681 225.766C146.49 233.902 172.128 254.321 195.351 278.666C205.915 289.739 216.561 302.242 226.956 315.907C239.129 281.835 255.888 241.27 277.453 201.168C315.725 129.999 372.762 53.448 451.994 23.8448C468.656 17.6198 486.946 26.5898 492.848 43.8799Z" fill="#FF8356"/>
</g>
<defs>
<clipPath id="clip0_62_500">
<rect width="512" height="512" fill="white"/>
</clipPath>
</defs>
</svg>
